<svg width="50" height="56" viewBox="0 0 50 56" fill="none" xmlns="http://www.w3.org/2000/svg">
<path d="M26.8542 13.7197H10.6458C7.0833 13.7197 4.16667 16.9864 4.16667 20.9764V47.4831C4.16667 50.8664 6.33333 52.313 8.97916 50.6564L17.1666 45.5464C18.0416 45.0097 19.4583 45.0097 20.3125 45.5464L28.5 50.6564C31.1458 52.313 33.3125 50.8664 33.3125 47.4831V20.9764C33.3333 16.9864 30.4167 13.7197 26.8542 13.7197Z" stroke="#0071E3" stroke-width="1.5" stroke-linecap="round" stroke-linejoin="round"/>
<path d="M33.3333 20.9764V47.4831C33.3333 50.8664 31.1667 52.2897 28.5208 50.6564L20.3334 45.5464C19.4584 45.0097 18.0416 45.0097 17.1666 45.5464L8.97916 50.6564C6.33333 52.2897 4.16667 50.8664 4.16667 47.4831V20.9764C4.16667 16.9864 7.0833 13.7197 10.6458 13.7197H26.8542C30.4167 13.7197 33.3333 16.9864 33.3333 20.9764Z" stroke="#0071E3" stroke-width="1.5" stroke-linecap="round" stroke-linejoin="round"/>
<path d="M45.8333 11.9236V38.4303C45.8333 41.8137 43.6667 43.237 41.0208 41.6036L33.3333 36.797V20.977C33.3333 16.987 30.4167 13.7203 26.8542 13.7203H16.6667V11.9236C16.6667 7.93362 19.5833 4.66699 23.1458 4.66699H39.3542C42.9167 4.66699 45.8333 7.93362 45.8333 11.9236Z" stroke="#0071E3" stroke-width="1.5" stroke-linecap="round" stroke-linejoin="round"/>
</svg>
